PathFileType	4	(X/Y/Z)	D:\TRACE\v60_Jaco2_6-2-23\BothDRS_Motion1_6-platform.trc
DataRate	CameraRate	NumFrames	NumMarkers	Units	OrigDataRate	OrigDataStartFrame	OrigNumFrames
100.00	100.00	      66	5	mm	100.00	4688	      7500
Frame#	Time	Left_Front			Right_Front			Left_Aft			Right_Aft			Post			
		X1	Y1	Z1	X2	Y2	Z2	X3	Y3	Z3	X4	Y4	Z4	X5	Y5	Z5	

4688	46.870	-756.77325	2.93193	-640.63501	813.32428	4.71123	-645.79016	-665.08875	11.47606	494.25885	777.04962	10.89225	503.67056	29.03395	1299.51099	-975.51465	
4689	46.880	-756.29559	2.54698	-640.66223	813.74170	4.34972	-645.85211	-664.45520	11.69678	494.23398	777.81964	11.40548	503.60666	29.30103	1299.20764	-975.82202	
4690	46.890	-755.84741	2.07558	-640.70630	814.23645	4.01821	-645.79865	-663.51099	12.03389	494.08691	778.42102	11.70027	503.55148	29.94812	1298.53906	-976.23859	
4691	46.900	-755.22205	1.64010	-640.86987	814.92438	3.60301	-645.73096	-663.19171	12.15706	494.12033	778.89282	11.83923	503.48700	30.98815	1297.86194	-976.62396	
4692	46.910	-754.55457	1.20010	-641.03156	815.34283	3.27677	-645.97864	-662.84186	12.37496	494.05600	779.30914	11.96481	503.38437	31.18142	1297.25476	-976.94019	
4693	46.920	-754.15997	0.97584	-641.20349	815.81079	2.79144	-646.32544	-662.40289	12.56421	494.02048	779.61432	12.20119	503.30029	31.78768	1296.80579	-977.63354	
4694	46.930	-753.74481	0.71399	-641.30615	816.16791	2.49747	-646.44000	-661.85809	12.84429	493.86951	780.31714	12.66350	503.27579	31.98396	1296.27686	-978.40051	
4695	46.940	-753.20270	0.36213	-641.23639	816.69318	2.18794	-646.44318	-661.50024	13.05309	493.78928	780.78601	13.02657	503.22903	32.19469	1295.84802	-979.56171	
4696	46.950	-752.84973	0.02517	-641.27594	817.01563	2.09003	-646.47052	-661.04657	13.37611	493.60953	781.18616	13.24792	503.22028	33.02036	1295.22021	-980.77411	
4697	46.960	-752.73248	-0.09701	-641.32013	817.41772	1.66910	-646.56134	-660.58026	13.59102	493.66721	781.47955	13.35694	503.16275	33.57753	1294.80823	-982.05170	
4698	46.970	-752.19373	-0.60880	-641.52136	817.87244	1.15050	-646.62939	-660.32965	13.78384	493.66290	781.52679	13.53019	503.10016	33.52742	1294.23975	-982.80658	
4699	46.980	-751.90527	-0.97612	-641.64294	817.91510	0.90393	-646.73389	-660.18030	13.97989	493.57547	782.06427	13.93427	503.10956	33.86646	1293.83704	-984.14258	
4700	46.990	-751.46729	-1.25936	-641.77881	818.28180	0.60985	-646.81848	-659.98846	14.41056	493.55414	782.43555	14.29560	502.83655	34.07257	1293.33521	-984.79730	
4701	47.000	-751.30237	-1.35770	-641.91052	818.56158	0.28610	-646.79797	-659.72388	14.73853	493.39551	782.76855	14.62952	502.67230	34.20121	1292.66821	-985.81659	
4702	47.010	-751.03278	-1.77559	-641.63922	818.88824	-0.18058	-646.87744	-659.48340	15.06847	493.34280	782.95093	14.96538	502.69336	34.38667	1292.16187	-986.21497	
4703	47.020	-751.14758	-2.61446	-641.83527	818.91205	-1.01884	-647.00220	-659.32239	15.26260	493.24030	783.10187	15.12983	502.66748	34.49837	1291.66809	-986.70856	
4704	47.030	-750.98627	-3.10912	-642.07562	819.11322	-1.32787	-647.07019	-659.22223	15.47596	493.13080	783.19220	15.32127	502.61975	34.64390	1291.12561	-987.03027	
4705	47.040	-750.82239	-3.30210	-642.13141	819.28143	-1.38990	-647.15204	-659.37213	15.93945	492.75137	783.28528	15.62647	502.52103	35.25084	1290.53271	-987.52271	
4706	47.050	-750.66272	-3.51448	-642.14069	819.44861	-1.74503	-647.27295	-658.82928	15.47408	492.95627	783.29840	15.80444	502.28763	35.33354	1290.09448	-987.82190	
4707	47.060	-750.55566	-3.70058	-642.20087	819.55023	-1.97793	-647.35028	-658.57855	15.75385	492.80188	783.44495	16.07066	502.16443	35.31773	1289.55029	-988.38940	
4708	47.070	-750.55432	-4.05657	-642.25824	819.65900	-2.20206	-647.42505	-658.42755	16.07529	492.74796	783.50970	16.40228	502.11597	35.26138	1289.03662	-989.03650	
4709	47.080	-750.54163	-4.50500	-642.26178	819.73151	-2.61726	-647.53949	-658.33405	16.32145	492.73267	783.50580	16.62524	502.11514	35.20258	1288.21924	-990.30750	
4710	47.090	-750.52173	-5.00260	-642.48468	819.66541	-3.26931	-647.44177	-658.09552	16.12350	492.99899	783.44635	16.86850	502.06720	35.32343	1287.65625	-990.87335	
4711	47.100	-750.52386	-5.16737	-642.53485	819.64484	-3.76357	-647.52014	-658.39789	16.82984	492.52368	783.39819	17.03199	502.00256	35.32104	1287.18250	-992.60333	
4712	47.110	-750.51471	-5.32911	-642.46704	819.59607	-3.92805	-647.59814	-658.49377	17.12950	492.41904	783.46271	17.33198	501.96539	35.15630	1286.82190	-993.22723	
4713	47.120	-750.60608	-5.86405	-642.53510	819.52710	-4.26600	-647.77777	-658.58850	17.47691	492.21320	783.69293	17.76456	501.85556	35.25110	1286.36487	-994.52942	
4714	47.130	-750.57349	-6.50257	-642.52783	819.52832	-4.52280	-647.94617	-658.64294	17.80311	492.01169	783.57208	18.07219	501.77969	35.23495	1285.75977	-995.25128	
4715	47.140	-750.58887	-6.93724	-642.60504	819.75293	-4.85877	-647.95874	-658.59912	18.00313	492.00949	783.60785	18.29633	501.65601	35.08015	1285.08752	-996.12085	
4716	47.150	-750.58966	-7.06055	-642.71838	819.66260	-5.21591	-648.03778	-658.61060	18.07318	491.99811	783.40680	18.50580	501.53091	35.27829	1284.71753	-996.83905	
4717	47.160	-750.51654	-7.36869	-642.81470	819.56396	-5.55323	-648.06805	-658.52319	18.25782	491.98523	783.40820	18.60306	501.49344	35.25249	1284.06250	-997.47711	
4718	47.170	-750.56592	-7.64830	-642.85443	819.50031	-5.85163	-648.12170	-658.51300	18.51887	491.95447	783.53772	18.77115	501.33286	35.01043	1283.53137	-997.64313	
4719	47.180	-750.79785	-8.01261	-642.96893	819.29993	-6.24396	-648.29541	-658.67828	18.75729	491.88373	783.23090	19.05685	501.21310	35.13045	1282.86401	-998.11639	
4720	47.190	-751.22351	-8.40128	-643.15021	819.08533	-6.65727	-648.34369	-659.00629	18.95020	491.72946	782.94354	19.35283	501.16891	34.69470	1282.49109	-998.75378	
4721	47.200	-751.35486	-8.64593	-643.33002	818.76050	-7.15687	-648.38220	-659.46490	19.32584	491.55124	782.53778	19.56047	501.19943	34.24639	1282.17554	-999.56433	
4722	47.210	-751.59357	-8.93878	-643.46399	818.60699	-7.37187	-648.18420	-659.81299	19.62288	491.38559	782.30298	19.68238	501.14270	33.85986	1281.76050	-1000.10669	
4723	47.220	-751.87988	-9.24060	-643.46954	818.45251	-7.60919	-648.25720	-659.98383	19.79397	491.33331	782.15887	19.89819	500.93570	33.74699	1281.08032	-1000.39606	
4724	47.230	-751.92401	-9.66246	-643.31647	818.04303	-7.93001	-648.48431	-660.21222	19.99857	491.25101	782.01422	20.32059	500.91541	33.47337	1280.36633	-1001.33392	
4725	47.240	-752.36963	-10.20280	-643.39465	817.68835	-8.25509	-648.73285	-660.36664	20.13791	491.14456	782.06110	20.63558	500.82370	33.62158	1279.87842	-1002.39081	
4726	47.250	-752.53625	-10.59326	-643.56940	817.46088	-8.59581	-648.88739	-660.54126	20.27866	491.12909	781.59320	20.86178	500.70407	33.27367	1279.37561	-1003.07617	
4727	47.260	-752.73828	-10.90712	-643.77087	817.12659	-8.95336	-648.97870	-660.82788	20.42788	491.05338	780.94409	20.98041	500.59616	32.85936	1278.78552	-1004.20154	
4728	47.270	-753.04633	-11.13394	-643.90790	817.04059	-9.24070	-648.87085	-660.98126	20.49063	491.04489	780.36310	21.10060	500.53833	32.84605	1278.47876	-1005.17859	
4729	47.280	-753.33063	-11.42016	-643.78363	816.83234	-9.48525	-648.79364	-661.16833	20.66055	491.07813	780.32483	21.31122	500.50961	32.23825	1278.00989	-1005.92706	
4730	47.290	-753.83728	-11.86217	-643.71783	816.33636	-9.81703	-648.80438	-661.63879	20.81988	491.03677	780.03809	21.65853	500.37570	31.92235	1277.49988	-1006.42957	
4731	47.300	-754.27869	-12.02772	-643.77954	815.73291	-10.14373	-648.94659	-662.21832	21.11449	490.84109	779.70575	21.81573	500.20901	31.38639	1276.89014	-1007.38672	
4732	47.310	-754.80719	-12.28751	-643.93762	815.06134	-10.47307	-649.08606	-662.74005	21.32714	490.68597	779.22498	21.90243	500.06772	30.99134	1276.56458	-1007.91986	
4733	47.320	-755.15045	-12.54786	-644.11548	814.72449	-10.73733	-649.25928	-663.57129	22.15231	490.29465	778.57532	22.00968	499.88416	30.42245	1276.11292	-1008.47784	
4734	47.330	-755.61694	-12.77561	-644.20032	814.41650	-10.98994	-649.10992	-663.72192	22.03758	490.43042	778.05841	22.13575	499.59998	30.23808	1275.74731	-1008.72736	
4735	47.340	-756.21259	-13.13759	-644.20367	814.14691	-11.34362	-649.14148	-663.94696	22.11345	490.48508	777.35193	22.09812	499.34534	29.71651	1275.02966	-1009.26666	
4736	47.350	-756.44519	-13.38215	-644.26160	813.73145	-11.65767	-649.27106	-664.27802	22.33573	490.40305	776.74658	22.12732	499.14716	29.12137	1274.69666	-1009.61450	
4737	47.360	-756.89716	-13.81669	-644.37775	813.28546	-12.05671	-649.41107	-664.92004	22.62725	490.35034	776.20087	22.32557	499.13931	28.66876	1274.35547	-1009.99585	
4738	47.370	-757.14954	-14.22389	-644.41901	812.86865	-12.36871	-649.42499	-665.44641	22.82246	490.26633	775.11816	22.34567	499.19650	28.36279	1274.00464	-1010.39618	
4739	47.380	-757.77783	-14.46735	-644.52991	812.13782	-12.39387	-649.46356	-666.01276	23.00650	490.07932	775.60724	23.20886	499.60696	27.78679	1273.47766	-1010.88550	
4740	47.390	-758.33130	-14.86925	-644.23987	811.49506	-12.35474	-649.46423	-666.45142	23.31506	490.07434	775.12073	23.42174	499.62927	27.31398	1272.98694	-1011.89783	
4741	47.400	-758.98438	-14.85542	-644.11719	811.03357	-12.66317	-649.53809	-666.82379	23.38321	490.09763	774.82214	23.60727	499.59094	26.75713	1272.63245	-1012.65594	
4742	47.410	-759.42896	-15.43014	-644.33344	810.67615	-13.28246	-649.65601	-667.35840	23.52033	489.93982	774.52521	23.84561	499.50519	26.15925	1272.30786	-1013.24353	
4743	47.420	-760.03961	-15.92366	-644.75732	810.27521	-13.63400	-649.79431	-668.17267	23.80447	489.82352	774.01331	24.13473	499.37961	25.69426	1271.52673	-1014.01135	
4744	47.430	-760.58661	-15.93952	-644.79596	809.54468	-13.93960	-650.02625	-668.79840	24.03280	489.75119	773.33789	24.33107	499.23935	25.07750	1270.97729	-1014.57050	
4745	47.440	-761.09387	-16.21464	-644.81604	808.81207	-14.05267	-650.01294	-669.19965	24.24717	489.75266	772.75372	24.49270	499.29016	24.78273	1270.58472	-1015.58832	
4746	47.450	-761.60504	-16.15439	-644.83911	808.32153	-14.27251	-649.88300	-669.65857	24.56124	489.66519	772.07410	24.83308	499.25723	24.32518	1270.30005	-1016.38971	
4747	47.460	-762.26990	-16.29734	-644.97388	807.74500	-14.57770	-649.86566	-670.42621	24.77427	489.60620	771.86145	24.92606	499.18912	23.99204	1269.99182	-1017.00378	
4748	47.470	-763.08698	-16.89286	-644.63635	807.26874	-14.77774	-649.98468	-671.07446	24.86346	489.63635	770.98315	24.84791	499.41931	22.66504	1269.59387	-1017.74060	
4749	47.480	-763.57153	-17.00238	-644.82458	806.67719	-15.14132	-650.15161	-671.61841	24.85748	489.54196	770.48370	25.27674	499.24362	22.09415	1269.39587	-1018.02814	
4750	47.490	-764.08606	-17.11265	-645.06250	805.96576	-15.29189	-650.20483	-672.10846	24.79639	489.46301	770.04364	25.37196	499.18320	21.42311	1269.09961	-1018.51984	
4751	47.500	-764.59680	-17.15121	-645.21600	805.25970	-15.32432	-650.21948	-672.66907	24.89190	489.43967	769.51569	25.52964	499.24207	20.86438	1269.01514	-1018.90320	
4752	47.510	-765.30981	-17.47705	-644.98230	804.53827	-15.45144	-650.12329	-673.60040	25.33212	489.36911	769.00598	25.69930	499.21628	20.34446	1268.72119	-1019.26300	
4753	47.520	-766.16125	-17.71152	-644.92230	804.20630	-15.59863	-649.96252	-673.99078	25.16311	489.22818	768.11273	25.87064	499.14780	19.62896	1268.23840	-1019.31934	
